<?xml version="1.0" encoding="UTF-8"?>
<svg id="Layer_1" data-name="Layer 1" xmlns="http://www.w3.org/2000/svg" viewBox="0 0 207.18 207.18">
  <defs>
    <style>
      .cls-1 {
        fill: #ff3d00;
      }

      .cls-2 {
        fill: #4caf50;
      }

      .cls-3 {
        fill: #ffc107;
      }

      .cls-4 {
        fill: #1976d2;
      }
    </style>
  </defs>
  <path class="cls-3" d="m205.16,83.3h-8.34v-.43h-93.23v41.43h58.54c-8.54,24.12-31.49,41.43-58.54,41.43-34.32,0-62.15-27.83-62.15-62.15s27.83-62.15,62.15-62.15c15.84,0,30.26,5.98,41.23,15.74l29.3-29.3C155.62,10.63,130.87,0,103.59,0,46.38,0,0,46.38,0,103.59s46.38,103.59,103.59,103.59,103.59-46.38,103.59-103.59c0-6.95-.71-13.73-2.01-20.29h0Z"/>
  <path class="cls-1" d="m11.94,55.37l34.03,24.96c9.21-22.8,31.51-38.9,57.61-38.9,15.84,0,30.26,5.98,41.23,15.74l29.3-29.3C155.62,10.63,130.87,0,103.59,0,63.8,0,29.29,22.46,11.94,55.37Z"/>
  <path class="cls-2" d="m103.59,207.17c26.76,0,51.07-10.24,69.45-26.89l-32.06-27.13c-10.4,7.88-23.33,12.59-37.39,12.59-26.94,0-49.82-17.18-58.44-41.15l-33.78,26.03c17.14,33.55,51.96,56.56,92.22,56.56h0Z"/>
  <path class="cls-4" d="m205.16,83.3h-8.34v-.43h-93.23v41.43h58.54c-4.1,11.59-11.56,21.58-21.17,28.85,0,0,0,0,.02,0l32.06,27.13c-2.27,2.06,34.14-24.9,34.14-76.69,0-6.95-.71-13.73-2.01-20.29h-.01Z"/>
</svg>